<?xml version="1.0" standalone="no"?>
<!DOCTYPE svg PUBLIC "-//W3C//DTD SVG 20010904//EN"
 "http://www.w3.org/TR/2001/REC-SVG-20010904/DTD/svg10.dtd">
<svg version="1.0" xmlns="http://www.w3.org/2000/svg"
 width="338.000000pt" height="338.000000pt" viewBox="0 0 338.000000 338.000000"
 preserveAspectRatio="xMidYMid meet">
<metadata>
Created by potrace 1.11, written by Peter Selinger 2001-2013
</metadata>
<g transform="translate(0.000000,338.000000) scale(0.100000,-0.100000)"
fill="#000000" stroke="none">
<path d="M0 1690 l0 -1690 331 0 c310 0 330 1 325 18 -3 9 -19 71 -35 137 -17
66 -33 129 -37 141 -5 18 0 22 27 28 32 6 32 7 12 21 -11 8 -26 28 -33 45 -10
23 -15 28 -22 18 -6 -9 -7 -6 -3 9 4 14 -5 47 -23 90 -17 37 -37 104 -47 148
-9 44 -30 127 -46 185 -47 174 -53 224 -39 363 15 146 35 192 42 96 4 -62 5
-63 70 -124 76 -73 346 -244 526 -334 165 -83 155 -85 319 82 97 100 137 149
163 200 39 76 64 98 78 70 22 -44 61 -187 76 -286 10 -59 30 -145 45 -190 47
-136 71 -213 71 -226 0 -39 -192 58 -283 143 -73 68 -144 113 -200 127 -45 11
-50 10 -116 -25 -80 -42 -89 -44 -61 -14 20 22 26 38 13 38 -15 0 -127 -95
-250 -212 -73 -69 -160 -145 -194 -167 -110 -73 -18 -40 140 50 89 51 120 59
141 34 7 -8 21 -15 30 -15 10 0 27 -11 38 -25 11 -14 29 -25 40 -25 14 0 24
-10 31 -32 13 -41 16 -114 6 -150 -9 -33 -2 -35 34 -8 l28 19 1 -29 c0 -23 -8
-36 -39 -61 -37 -29 -39 -34 -39 -85 l0 -54 53 0 52 0 55 107 c30 59 70 127
88 151 30 40 33 48 37 145 5 82 9 106 25 121 26 26 80 43 110 35 14 -4 18 -8
10 -9 -23 -2 62 -33 88 -31 13 0 20 -3 17 -9 -3 -5 10 -12 30 -16 19 -3 38
-10 41 -15 3 -5 16 -9 29 -9 44 0 55 -10 55 -51 0 -21 6 -42 13 -46 7 -4 18
-43 24 -87 6 -43 15 -81 20 -85 5 -3 17 -42 27 -86 10 -44 20 -88 23 -97 4
-17 48 -18 734 -18 l729 0 0 1690 0 1690 -1690 0 -1690 0 0 -1690z m1178 1525
c38 -8 99 -25 136 -39 182 -69 390 -241 427 -353 6 -21 31 -77 55 -125 35 -70
41 -88 30 -97 -7 -6 -20 -9 -29 -5 -8 3 -21 -2 -28 -11 -24 -29 -46 -49 -74
-68 -14 -11 -30 -30 -35 -43 -8 -21 -16 -24 -56 -24 -44 0 -49 3 -113 69 l-66
69 -50 -3 c-27 -2 -68 -9 -90 -15 -22 -6 -52 -14 -67 -17 -16 -3 -28 -9 -28
-13 0 -4 -17 -11 -37 -15 -28 -5 -33 -9 -22 -17 10 -7 7 -8 -13 -4 -15 4 -32
1 -40 -6 -7 -7 -33 -23 -58 -35 -39 -19 -42 -22 -19 -22 44 -1 42 -15 -3 -27
-24 -6 -52 -15 -63 -19 -14 -4 -13 -2 4 8 33 20 11 30 -41 18 -24 -5 -77 -17
-118 -27 -41 -9 -80 -20 -85 -25 -21 -16 -99 -28 -112 -17 -7 6 -28 14 -46 18
-31 8 -31 8 -4 9 15 1 27 6 27 11 0 6 -3 10 -7 10 -5 0 -18 3 -30 6 -17 5 -23
2 -23 -10 0 -9 -4 -16 -10 -16 -15 0 -12 34 5 56 14 18 16 18 26 2 15 -27 28
-22 47 20 9 20 22 40 27 44 20 15 -7 8 -36 -9 -31 -19 -54 -9 -26 11 20 16 14
71 -9 80 -20 8 -37 -39 -24 -63 14 -27 -8 -48 -57 -56 -36 -6 -43 -4 -43 9 0
9 5 16 11 16 6 0 10 10 9 23 -3 34 -1 47 9 47 5 0 11 -9 14 -20 3 -11 10 -20
16 -20 17 0 25 30 12 43 -6 6 -11 30 -11 53 0 32 4 44 18 47 13 4 13 5 -4 6
-25 1 -40 51 -24 81 11 20 0 33 -37 44 -17 5 -21 3 -19 -11 2 -10 1 -13 -1 -6
-7 18 -40 25 -63 13 -16 -9 -22 -8 -27 6 -4 10 -2 19 5 22 7 2 12 9 12 15 0
18 73 119 120 166 115 113 225 176 360 205 130 28 279 32 378 11z m-878 -457
c0 -19 -2 -20 -10 -8 -13 19 -13 30 0 30 6 0 10 -10 10 -22z m1708 -350 c15
-15 16 -32 2 -23 -16 10 -12 -5 6 -23 13 -13 15 -29 11 -79 -9 -97 -26 -142
-59 -159 -29 -15 -29 -15 -25 13 3 15 14 62 26 103 23 82 26 131 11 161 -12
22 8 27 28 7z m-831 -40 c-3 -7 -5 -2 -5 12 0 14 2 19 5 13 2 -7 2 -19 0 -25z
m137 24 c8 -14 -21 -43 -38 -36 -16 6 -16 8 0 25 18 20 30 24 38 11z m256 -24
c-1 -35 -31 -152 -47 -178 -26 -44 -84 -63 -182 -59 -93 5 -127 23 -147 81
-16 46 -28 142 -15 113 5 -11 10 -31 10 -45 2 -41 24 -73 51 -75 39 -3 79 14
160 70 112 77 109 77 105 -8 l-4 -72 21 45 c12 25 23 66 26 93 2 26 8 47 13
47 5 0 9 -6 9 -12z m109 -15 c14 -16 42 -59 61 -98 26 -52 41 -71 58 -73 25
-4 41 23 23 41 -14 14 -14 30 1 25 12 -4 38 -80 38 -112 0 -16 -5 -17 -36 -11
-46 8 -43 -15 4 -30 33 -9 38 -23 22 -60 -7 -17 -9 -17 -9 -2 -1 9 -7 17 -15
17 -8 0 -16 7 -20 15 -3 8 -15 15 -26 15 -12 0 -19 -4 -16 -9 6 -9 -21 -8 -44
2 -38 17 -111 23 -159 14 -56 -12 -68 -7 -52 20 6 10 11 15 11 11 0 -5 9 1 21
13 12 12 29 19 40 16 14 -4 19 0 19 13 0 11 -4 22 -10 25 -5 3 -10 1 -10 -4 0
-17 -17 -13 -25 6 -3 10 -1 19 4 21 6 2 11 8 11 14 0 14 26 38 34 31 3 -4 6
-1 6 5 0 6 -4 13 -9 17 -9 5 -6 59 5 93 6 21 46 13 73 -15z m76 -3 c-4 -19 -3
-30 4 -30 6 0 11 -5 11 -11 0 -5 -5 -7 -11 -3 -6 3 -16 0 -21 -7 -7 -10 -8 -6
-5 14 2 15 0 27 -5 27 -5 0 -4 9 2 20 17 31 33 25 25 -10z m-438 -26 c-3 -3
-12 -4 -19 -1 -8 3 -5 6 6 6 11 1 17 -2 13 -5z m-389 -46 c26 -12 55 -29 64
-37 42 -40 50 -42 105 -40 50 3 57 0 75 -24 26 -35 61 -53 121 -62 52 -8 62
-22 20 -27 -16 -2 -26 -7 -25 -12 2 -5 -2 -12 -8 -16 -18 -11 -3 -30 23 -31
12 -1 2 -6 -21 -11 -40 -9 -42 -11 -25 -23 17 -13 17 -14 1 -15 -10 0 -18 -4
-18 -9 0 -5 -9 -13 -20 -16 -11 -3 -20 -12 -20 -20 0 -8 -12 -15 -27 -17 -21
-2 -29 -10 -35 -35 -5 -18 -12 -32 -16 -32 -4 1 -24 1 -44 0 -32 -1 -38 -5
-38 -22 0 -18 -3 -19 -14 -9 -8 6 -13 17 -10 25 4 8 -5 15 -25 20 -25 5 -29
11 -29 36 1 25 5 29 32 31 l31 1 -32 4 c-23 3 -30 8 -26 19 3 8 0 14 -6 14
-19 0 -51 39 -45 54 3 9 -3 17 -15 21 -27 8 -27 21 -1 28 23 6 27 27 6 27 -8
0 -17 14 -21 31 -6 26 -10 30 -30 25 -15 -4 -27 -1 -32 7 -4 7 -24 19 -43 27
-63 25 -78 38 -72 66 4 21 1 25 -14 22 -11 -2 -18 -10 -16 -17 1 -7 -3 -11
-10 -9 -7 3 -13 13 -13 24 0 16 8 19 53 20 28 0 55 4 60 8 12 13 110 -3 160
-26z m-514 -2 c35 -17 60 -22 86 -19 37 5 38 5 32 -23 -2 -16 -9 -35 -15 -41
-12 -17 -43 -17 -50 0 -2 7 -31 23 -63 36 -56 24 -59 24 -103 8 -25 -9 -47
-14 -49 -12 -10 10 12 47 36 60 38 20 70 18 126 -9z m216 -30 c0 -24 -17 -28
-23 -6 -3 13 0 20 9 20 8 0 14 -6 14 -14z m-271 -63 c-5 -33 3 -53 21 -53 11
0 20 -4 20 -10 0 -5 3 -9 8 -7 4 1 9 -2 12 -8 3 -5 -14 -17 -37 -25 l-43 -14
0 -53 c0 -28 5 -55 10 -58 6 -4 8 -10 5 -15 -8 -13 36 -34 65 -31 14 1 39 -5
55 -13 19 -10 33 -12 39 -6 18 18 26 11 26 -22 0 -17 7 -39 16 -49 22 -25 12
-45 -32 -64 -48 -20 -66 -19 -97 5 -14 11 -34 20 -44 20 -11 0 -30 12 -44 26
-22 24 -22 26 -4 21 63 -17 76 -17 91 -2 9 8 25 15 37 16 21 0 21 1 -2 10 -14
5 -39 10 -56 11 -46 2 -83 36 -91 83 -3 22 -8 42 -10 44 -2 2 1 10 7 18 8 9 8
17 1 26 -11 14 4 124 20 145 11 13 29 16 27 5z m372 -2 c-8 -5 -20 -7 -28 -4
-21 8 -15 13 15 13 20 0 23 -3 13 -9z m-281 -45 c0 -3 -4 -8 -10 -11 -5 -3
-10 -1 -10 4 0 6 5 11 10 11 6 0 10 -2 10 -4z m324 -32 c4 -10 -1 -22 -11 -30
-16 -12 -16 -13 10 -14 30 0 38 -26 10 -32 -30 -6 -63 4 -63 18 0 8 -4 14 -10
14 -5 0 -10 5 -10 10 0 6 7 10 15 10 8 0 20 9 27 20 15 24 24 25 32 4z m106 6
c0 -5 -5 -10 -11 -10 -5 0 -7 5 -4 10 3 6 8 10 11 10 2 0 4 -4 4 -10z m-318
-100 c-3 -14 -11 -31 -18 -37 -10 -11 -16 -9 -28 9 -22 31 -20 68 6 95 l23 24
11 -33 c7 -18 9 -44 6 -58z m-132 -59 c0 -5 -6 -14 -14 -20 -11 -9 -18 -8 -30
5 -23 22 -3 48 25 33 10 -5 19 -13 19 -18z m1030 -18 c0 -16 -23 -43 -37 -43
-4 0 -14 9 -21 21 -12 18 -11 21 7 26 12 3 21 9 21 14 0 5 7 6 15 3 8 -4 15
-13 15 -21z m308 -18 c6 -14 16 -25 21 -25 5 0 12 -12 15 -26 5 -20 1 -31 -18
-49 l-25 -24 -11 37 c-12 45 -13 112 -2 112 5 0 14 -11 20 -25z m69 -107 c-3
-8 -6 -5 -6 6 -1 11 2 17 5 13 3 -3 4 -12 1 -19z m5 -80 c2 -21 0 -38 -4 -38
-4 0 -8 21 -7 48 1 52 6 48 11 -10z m-339 -5 c-7 -2 -19 -2 -25 0 -7 3 -2 5
12 5 14 0 19 -2 13 -5z m233 -40 c-4 -4 -11 -1 -16 7 -16 25 -11 35 7 17 9 -9
13 -20 9 -24z m-299 -2 c12 -9 23 -21 23 -27 0 -7 7 -14 15 -18 8 -3 12 -12 9
-21 -3 -8 -3 -22 0 -31 5 -13 9 -14 21 -4 12 10 15 9 15 -5 0 -10 7 -26 16
-36 27 -30 8 -40 -59 -33 -74 7 -73 7 -79 39 -4 21 -1 25 18 25 15 0 24 6 24
15 0 8 -9 15 -19 15 -37 0 -81 33 -81 61 0 49 43 59 97 20z m345 -54 c5 -52
-1 -89 -14 -81 -6 4 -8 -6 -7 -23 2 -15 -4 -39 -13 -52 -16 -23 -18 -23 -42
-7 -15 9 -26 14 -26 11 0 -3 -9 -1 -20 5 -31 17 -23 31 15 27 31 -4 37 0 55
30 25 42 26 72 3 89 -17 12 -17 14 2 32 28 27 42 17 47 -31z m-77 -77 c3 -5 1
-10 -4 -10 -6 0 -11 5 -11 10 0 6 2 10 4 10 3 0 8 -4 11 -10z m-456 -925 c23
7 110 -34 131 -62 14 -17 14 -17 -5 -2 -34 27 -154 53 -235 51 -85 -2 -83 4 5
16 34 5 65 4 72 -1 7 -5 21 -6 32 -2z m86 -197 c14 -6 25 -18 25 -26 0 -12 -8
-13 -37 -7 -21 4 -69 11 -108 15 -67 6 -69 8 -18 14 13 2 26 6 30 9 10 11 80
8 108 -5z"/>
<path d="M688 2503 c6 -2 18 -2 25 0 6 3 1 5 -13 5 -14 0 -19 -2 -12 -5z"/>
<path d="M937 2040 c-3 -13 0 -20 9 -20 8 0 14 9 14 20 0 11 -4 20 -9 20 -5 0
-11 -9 -14 -20z"/>
<path d="M1048 2013 c6 -2 18 -2 25 0 6 3 1 5 -13 5 -14 0 -19 -2 -12 -5z"/>
<path d="M997 1974 c-8 -8 1 -24 14 -24 5 0 9 7 9 15 0 15 -12 20 -23 9z"/>
<path d="M1407 219 c-3 -13 -33 -67 -66 -119 l-60 -95 101 -3 c74 -2 104 1
110 10 11 18 10 72 -1 84 -6 5 -25 40 -44 78 -30 61 -35 66 -40 45z"/>
</g>
</svg>
